<svg width="512" height="512" viewBox="0 0 512 512" fill="none" xmlns="http://www.w3.org/2000/svg" xmlns:xlink="http://www.w3.org/1999/xlink" class=""><rect id="_r_3b_" width="512" height="512" x="0" y="0" rx="128" fill="url(#_r_3c_)" stroke="#FFFFFF" stroke-width="0" stroke-opacity="100%" paint-order="stroke"></rect><clipPath id="clip"><use xlink:href="#_r_3b_"></use></clipPath><defs><radialGradient id="_r_3c_" cx="50%" cy="50%" r="100%" fx="50%" fy="0%" gradientUnits="objectBoundingBox"><stop stop-color="#4d4d4d"></stop><stop offset="1" stop-color="#000000"></stop></radialGradient><radialGradient id="_r_3d_" cx="0" cy="0" r="1" gradientUnits="userSpaceOnUse" gradientTransform="translate(256) rotate(90) scale(512)"><stop stop-color="white"></stop><stop offset="1" stop-color="white" stop-opacity="0"></stop></radialGradient></defs><svg xmlns="http://www.w3.org/2000/svg" fill="none" viewBox="0 0 16 16" width="352" height="352" x="80" y="80" alignment-baseline="middle" style="color: rgb(230, 230, 230); width: 352px; height: 352px;"><path stroke="currentColor" stroke-linecap="round" stroke-linejoin="round" stroke-width="1.5" d="m10.673 3.471 1.341-.46c.865-.296 1.82.124 2.135.939.315.814-.131 1.716-.995 2.012l-2.236.767-1.136 2.927c-.214.431-.6.765-1.074.928l-1.942.666.575-3.293-3.8 1.304L1.75 4.624l.907-.311a1.99 1.99 0 0 1 1.96.383l.69.617 2.683-.92m2.683-.922-.591-.702c-.764-.908-2.059-1.253-3.213-.857l-.75.258L7.99 4.392m2.683-.92-2.683.92M1.75 14.25h12.5"></path></svg></svg>